<?xml version="1.0"?>
<svg xmlns="http://www.w3.org/2000/svg" height="512px" viewBox="-21 -48 682.66535 682" width="512px"><g><path d="m553.953125-1.5h-467.910156c-47.445313 0-86.042969 38.597656-86.042969 86.042969v288.433593c0 47.445313 38.597656 86.042969 86.042969 86.042969h28.09375v125.714844l187.773437-125.714844h252.042969c47.445313 0 86.046875-38.597656 86.046875-86.042969v-288.433593c0-47.445313-38.601562-86.042969-86.046875-86.042969zm48.546875 374.476562c0 26.765626-21.777344 48.542969-48.546875 48.542969h-263.441406l-138.875 92.980469v-92.980469h-65.59375c-26.765625 0-48.542969-21.777343-48.542969-48.542969v-288.433593c0-26.765625 21.777344-48.542969 48.542969-48.542969h467.910156c26.769531 0 48.546875 21.777344 48.546875 48.542969zm0 0" data-original="#000000" class="active-path" data-old_color="#000000" fill="#12BDCD"/><path d="m304.882812 102.824219c-19.535156 0-38.28125 6.855469-53.117187 18.964843-14.828125-12.109374-33.566406-18.964843-53.105469-18.964843-46.269531 0-83.910156 37.644531-83.910156 83.910156 0 20.847656 7.695312 40.832031 21.660156 56.265625l115.355469 127.734375 115.347656-127.71875c13.980469-15.449219 21.675781-35.441406 21.675781-56.28125 0-46.265625-37.636718-83.910156-83.90625-83.910156zm34.414063 115.042969-87.53125 96.914062-87.53125-96.925781c-7.730469-8.542969-11.984375-19.589844-11.984375-31.121094 0-25.589844 20.816406-46.410156 46.410156-46.410156 14.980469 0 29.128906 7.300781 37.839844 19.53125l15.265625 21.441406 15.28125-21.441406c8.703125-12.230469 22.851563-19.53125 37.835937-19.53125 25.589844 0 46.410157 20.820312 46.410157 46.410156-.003907 11.523437-4.257813 22.578125-11.996094 31.132813zm0 0" data-original="#000000" class="active-path" data-old_color="#000000" fill="#12BDCD"/><path d="m420.609375 155.0625 28.28125 24.628906 23.253906-26.699218v196.28125h37.496094v-246.449219h-43.53125zm0 0" data-original="#000000" class="active-path" data-old_color="#000000" fill="#12BDCD"/></g> </svg>
