<?xml version="1.0"?>
<svg xmlns="http://www.w3.org/2000/svg" xmlns:xlink="http://www.w3.org/1999/xlink" version="1.1" id="Layer_1" x="0px" y="0px" viewBox="0 0 511.995 511.995" style="enable-background:new 0 0 511.995 511.995;" xml:space="preserve" width="512px" height="512px" class=""><g><g>
	<path d="M511.663,419.689l-11.179-67.072c-1.958-11.75-12.026-20.278-23.938-20.278H426.31c1.715-4.145,2.269-8.725,1.513-13.258   l-11.179-67.073c-1.958-11.75-12.026-20.278-23.938-20.278h-50.237c1.715-4.145,2.269-8.725,1.513-13.258l-11.179-67.073   c-1.958-11.75-12.026-20.278-23.938-20.278H203.13c-11.912,0-21.979,8.528-23.938,20.278l-11.179,67.072   c-0.756,4.533-0.202,9.114,1.513,13.258h-50.237c-11.912,0-21.979,8.528-23.938,20.279l-0.459,2.754   c-0.681,4.085,2.08,7.95,6.165,8.63c4.088,0.68,7.95-2.079,8.631-6.165l0.459-2.754c0.748-4.487,4.593-7.745,9.142-7.745h105.736   c4.549,0,8.394,3.257,9.142,7.745l11.179,67.072c0.449,2.692-0.306,5.432-2.071,7.515c-1.79,2.113-4.302,3.277-7.071,3.277H108.11   c-2.77,0-5.281-1.164-7.072-3.277c-1.764-2.083-2.519-4.822-2.07-7.515l5.13-30.782c0.681-4.085-2.079-7.95-6.165-8.631   c-4.086-0.681-7.95,2.079-8.631,6.165l-5.13,30.782c-0.755,4.533-0.201,9.113,1.513,13.258H35.449   c-11.912,0-21.979,8.528-23.938,20.278L0.332,419.689c-1.175,7.051,0.801,14.222,5.421,19.676   c4.62,5.454,11.369,8.582,18.517,8.582h128.093c7.148,0,13.897-3.128,18.517-8.582c0.454-0.536,0.875-1.093,1.277-1.66   c0.402,0.567,0.823,1.124,1.277,1.66c4.62,5.454,11.369,8.582,18.517,8.582h128.093c7.148,0,13.897-3.128,18.517-8.582   c0.454-0.536,0.875-1.093,1.277-1.66c0.402,0.567,0.823,1.124,1.277,1.66c4.62,5.454,11.369,8.582,18.517,8.582h128.093   c7.148,0,13.897-3.128,18.517-8.582C510.862,433.911,512.838,426.74,511.663,419.689z M401.848,254.474l11.179,67.072   c0.449,2.692-0.306,5.432-2.07,7.515c-1.791,2.113-4.302,3.277-7.072,3.277H275.792c-2.77,0-5.281-1.164-7.071-3.277   c-1.765-2.083-2.52-4.822-2.071-7.515l11.179-67.073c0.748-4.487,4.592-7.744,9.142-7.744h105.736   C397.255,246.73,401.1,249.987,401.848,254.474z M191.951,231.73c-2.73,0-5.308-1.195-7.072-3.278   c-1.791-2.113-2.526-4.782-2.07-7.514l11.179-67.072c0.748-4.488,4.593-7.745,9.142-7.745h105.735c4.549,0,8.394,3.257,9.142,7.744   l11.179,67.073c0.456,2.732-0.28,5.4-2.07,7.514c-1.764,2.083-4.342,3.278-7.072,3.278H191.951z M264.557,246.73   c-0.686,1.669-1.216,3.428-1.524,5.278l-7.035,42.209l-7.035-42.209c-0.308-1.851-0.838-3.609-1.524-5.279H264.557z    M159.435,429.669c-1.764,2.083-4.342,3.277-7.072,3.277H24.27c-2.73,0-5.308-1.194-7.072-3.277   c-1.791-2.113-2.526-4.782-2.07-7.515l11.179-67.072c0.748-4.487,4.593-7.744,9.142-7.744h105.735c4.549,0,8.394,3.257,9.142,7.744   l11.179,67.073C161.961,424.887,161.225,427.556,159.435,429.669z M172.157,394.826l-7.035-42.209   c-0.308-1.851-0.839-3.609-1.525-5.278h17.119c-0.686,1.669-1.217,3.428-1.525,5.278L172.157,394.826z M339.838,394.827   l-0.986-5.913c-0.681-4.086-4.552-6.848-8.631-6.165c-4.086,0.681-6.846,4.545-6.165,8.631l5.129,30.776   c0.456,2.732-0.28,5.401-2.07,7.514c-1.764,2.083-4.342,3.277-7.072,3.277H191.951c-2.73,0-5.308-1.194-7.072-3.277   c-1.791-2.113-2.526-4.782-2.07-7.515l11.179-67.072c0.748-4.487,4.593-7.744,9.142-7.744h105.735c4.549,0,8.394,3.257,9.142,7.744   l0.46,2.761c0.681,4.086,4.542,6.847,8.63,6.165c4.086-0.681,6.846-4.544,6.166-8.63l-0.46-2.762   c-0.308-1.851-0.839-3.609-1.525-5.278h17.119c-0.686,1.669-1.216,3.428-1.525,5.278L339.838,394.827z M494.797,429.669   c-1.764,2.083-4.342,3.277-7.072,3.277H359.632c-2.73,0-5.308-1.194-7.072-3.277c-1.791-2.113-2.526-4.782-2.07-7.515   l11.179-67.072c0.748-4.487,4.593-7.744,9.142-7.744h105.735c4.549,0,8.394,3.257,9.142,7.744l11.179,67.073   C497.323,424.887,496.587,427.556,494.797,429.669z" data-original="#000000" class="active-path" data-old_color="#000000" fill="#FCB11A"/>
	<path d="M38.012,297.034h25.152c4.142,0,7.5-3.358,7.5-7.5s-3.358-7.5-7.5-7.5H38.012c-4.142,0-7.5,3.358-7.5,7.5   S33.87,297.034,38.012,297.034z" data-original="#000000" class="active-path" data-old_color="#000000" fill="#FCB11A"/>
	<path d="M441.331,289.534c0,4.142,3.358,7.5,7.5,7.5h25.152c4.142,0,7.5-3.358,7.5-7.5s-3.358-7.5-7.5-7.5h-25.152   C444.689,282.034,441.331,285.392,441.331,289.534z" data-original="#000000" class="active-path" data-old_color="#000000" fill="#FCB11A"/>
	<path d="M255.998,104.201c4.142,0,7.5-3.358,7.5-7.5V71.548c0-4.143-3.358-7.5-7.5-7.5c-4.142,0-7.5,3.357-7.5,7.5v25.152   C248.498,100.842,251.856,104.201,255.998,104.201z" data-original="#000000" class="active-path" data-old_color="#000000" fill="#FCB11A"/>
	<path d="M114.34,158.483c1.464,1.465,3.384,2.197,5.303,2.197s3.839-0.732,5.303-2.197c2.929-2.929,2.929-7.677,0-10.606   l-17.785-17.785c-2.929-2.929-7.678-2.929-10.606,0c-2.929,2.929-2.929,7.678,0,10.606L114.34,158.483z" data-original="#000000" class="active-path" data-old_color="#000000" fill="#FCB11A"/>
	<path d="M392.352,160.68c1.919,0,3.839-0.732,5.303-2.197l17.785-17.785c2.929-2.929,2.929-7.677,0-10.606   c-2.929-2.929-7.678-2.929-10.606,0l-17.785,17.785c-2.929,2.929-2.929,7.678,0,10.606   C388.513,159.948,390.432,160.68,392.352,160.68z" data-original="#000000" class="active-path" data-old_color="#000000" fill="#FCB11A"/>
	<path d="M153.086,126.286c1.389,2.406,3.91,3.751,6.502,3.751c1.272,0,2.563-0.324,3.744-1.006   c3.587-2.071,4.816-6.658,2.745-10.246l-4.192-7.261c-2.071-3.587-6.658-4.815-10.246-2.745c-3.587,2.071-4.816,6.658-2.745,10.246   L153.086,126.286z" data-original="#000000" class="active-path" data-old_color="#000000" fill="#FCB11A"/>
	<path d="M416.501,196.867c1.389,2.406,3.91,3.751,6.502,3.751c1.272,0,2.563-0.324,3.743-1.006l7.261-4.192   c3.587-2.071,4.816-6.658,2.745-10.245c-2.071-3.588-6.659-4.816-10.245-2.745l-7.261,4.192   C415.659,188.693,414.43,193.28,416.501,196.867z" data-original="#000000" class="active-path" data-old_color="#000000" fill="#FCB11A"/>
	<path d="M303.966,110.515c0.65,0.175,1.303,0.258,1.946,0.258c3.311,0,6.342-2.21,7.24-5.561l2.17-8.099   c1.072-4.001-1.303-8.113-5.304-9.186c-3.996-1.072-8.113,1.302-9.186,5.303l-2.17,8.098   C297.59,105.331,299.965,109.443,303.966,110.515z" data-original="#000000" class="active-path" data-old_color="#000000" fill="#FCB11A"/>
	<path d="M59.695,244.699l8.099,2.17c0.65,0.174,1.303,0.257,1.946,0.257c3.311,0,6.342-2.21,7.24-5.561   c1.072-4.001-1.303-8.113-5.304-9.186l-8.099-2.17c-3.997-1.071-8.113,1.302-9.186,5.303   C53.32,239.515,55.694,243.628,59.695,244.699z" data-original="#000000" class="active-path" data-old_color="#000000" fill="#FCB11A"/>
	<path d="M348.664,129.03c1.182,0.682,2.471,1.006,3.744,1.006c2.592,0,5.113-1.345,6.502-3.751l4.192-7.261   c2.071-3.587,0.842-8.174-2.745-10.246c-3.588-2.071-8.175-0.842-10.246,2.745l-4.192,7.261   C343.848,122.372,345.077,126.959,348.664,129.03z" data-original="#000000" class="active-path" data-old_color="#000000" fill="#FCB11A"/>
	<path d="M77.988,195.42l7.261,4.192c1.181,0.682,2.471,1.006,3.743,1.006c2.592,0,5.113-1.346,6.502-3.751   c2.071-3.587,0.842-8.174-2.745-10.245l-7.261-4.192c-3.587-2.071-8.174-0.843-10.245,2.745   C73.172,188.762,74.401,193.349,77.988,195.42z" data-original="#000000" class="active-path" data-old_color="#000000" fill="#FCB11A"/>
	<path d="M198.844,105.212c0.898,3.351,3.928,5.561,7.24,5.561c0.643,0,1.296-0.083,1.946-0.258   c4.001-1.072,6.375-5.185,5.304-9.186l-2.17-8.098c-1.072-4.001-5.185-6.375-9.186-5.303c-4.001,1.072-6.375,5.185-5.304,9.186   L198.844,105.212z" data-original="#000000" class="active-path" data-old_color="#000000" fill="#FCB11A"/>
	<path d="M435.016,241.566c0.898,3.351,3.928,5.561,7.24,5.561c0.643,0,1.296-0.083,1.946-0.257l8.099-2.17   c4.001-1.072,6.375-5.184,5.304-9.186c-1.072-4.001-5.186-6.376-9.186-5.303l-8.099,2.17   C436.318,233.453,433.944,237.565,435.016,241.566z" data-original="#000000" class="active-path" data-old_color="#000000" fill="#FCB11A"/>
</g></g> </svg>
